<?xml version="1.0" encoding="utf-8"?>
<svg xmlns="http://www.w3.org/2000/svg" xmlns:xlink="http://www.w3.org/1999/xlink" version= "1.1" width="1080px" height="2186px" viewBox="0 0 1080 2186">
<g id="layer1">
<g style="fill:rgb(1,162,236); fill-opacity:1.0; stroke-linejoin: miter">
<path d="M521.7502,1245.2021L523.98004,1172.7622Q544.5333,1142.295,549.81586,1127.724Q557.2839,1109.8025,548.689,1098.057Q541.5465,1087.5295,511.90265,1079.9131Q493.9508,1075.112,450.9587,1073.6322Q440.50732,1067.5062,445.93085,1052.1018Q449.5144,1042.6224,459.30157,1029.6716Q508.01544,969.09033,541.9772,924.3404L511.22534,914.0033Q539.8952,901.78094,630.8949,854.7766Q617.6704,880.7878,493.1402,1042.9218Q539.80853,1050.0902,553.62427,1058.8993Q572.7119,1067.4175,582.1038,1095.1602Q583.2808,1097.6117,584.40985,1110.4407Q584.73645,1120.7651,582.0102,1130.4397Q578.93494,1145.163,557.817,1176.065L555.1532,1244.5289Q610.52985,1241.9583,626.71246,1245.2155Q633.22424,1246.0676,638.9172,1250.3643Q642.8853,1253.1483,641.26025,1260.7506Q638.5043,1268.5918,618.6653,1269.1648Q607.3362,1270.8761,480.3797,1269.0006Q470.91446,1268.9983,471.77728,1272.602Q473.1824,1279.909,479.2138,1278.7671L620.6298,1279.1145Q634.0405,1279.2891,636.0998,1280.6213Q640.6792,1281.5515,641.6859,1289.9468L642.0494,1321.4072Q641.7083,1326.9987,641.2317,1327.798Q638.4351,1336.8263,625.23834,1337.117Q593.5936,1335.7539,480.7923,1337.0696Q472.24557,1337.1682,472.78683,1342.2502Q473.26044,1347.3455,479.00256,1347.3683L611.6792,1346.8789Q619.03516,1346.8024,626.2333,1347.8639Q644.72614,1349.3698,643.6987,1368.4761L640.8116,1393.205Q639.40173,1399.2166,637.3314,1400.5895Q630.21893,1407.1118,598.91675,1405.5973L535.04114,1401.6145Q526.5006,1399.3003,527.665,1389.5352Q527.92664,1383.6772,545.11884,1381.0956Q548.6054,1379.6572,606.9994,1380.2812Q615.2642,1377.4855,608.56726,1372.7009L482.05063,1371.7212Q454.3912,1369.984,449.60938,1363.0635Q441.31396,1356.831,445.31244,1332.1722Q449.1222,1316.409,459.915,1314.5044Q467.06622,1312.4492,479.17392,1312.299Q565.72473,1313.417,592.5846,1312.4425Q613.7211,1311.6984,612.9909,1309.3735Q614.38464,1302.6799,600.39514,1302.4009L459.5782,1303.5068Q453.84888,1303.4437,451.1554,1301.1626Q443.687,1296.0017,442.3582,1273.2239Q442.24396,1255.121,450.0575,1248.4849Q450.9133,1238.415,521.7502,1245.2021"/>
</g>
<g style="fill:rgb(1,162,236); fill-opacity:1.0; stroke-linejoin: miter">
<path d="M446.8277,914.6603L446.82773,914.6604L446.82776,914.6605L446.8277,914.6603"/>
</g>
</g>
<g id="layer2">
<g style="fill:rgb(36,34,35); fill-opacity:1.0; stroke-linejoin: miter">
<path d="M646.3535,1239.9529L650.19055,1229.1537Q671.0936,1169.6191,687.3742,1133.7947Q693.90906,1117.7703,733.08154,1045.0728Q742.8699,1025.536,749.7066,1004.8873Q756.0243,989.6099,759.50696,950.8219Q760.5918,928.5249,756.91675,906.9094Q744.4873,840.67114,693.00757,802.67267Q643.46716,763.41943,540.73004,748.0277L541.4244,604.4481Q577.2887,597.5806,588.7876,612.0976Q599.3116,623.09143,598.7964,679.67053Q656.23444,691.21826,691.14233,713.8466Q724.8596,682.463,739.23096,677.1566Q752.02423,671.6948,765.9192,685.14233Q770.21594,688.20135,809.55334,728.8026Q816.37366,735.61053,818.6986,741.9731Q821.3627,750.6748,813.64777,761.5273Q809.6,769.01904,781.54517,797.34607Q819.02484,848.5179,826.4172,899.1853L885.855,903.04785Q893.3928,905.9917,894.6486,918.99255Q901.60156,981.6809,892.56396,1007.78125Q888.47473,1015.82434,879.94275,1016.6199L829.23596,1019.7229Q823.2261,1070.7754,789.8701,1123.1885Q820.89166,1151.4022,826.4272,1163.2717Q834.03564,1176.9686,825.2202,1188.116L780.23145,1236.7148Q769.43823,1247.6218,763.3886,1249.2289Q758.1533,1251.1965,751.69617,1247.3135Q731.7933,1229.7925,705.83374,1210.5076Q676.5371,1228.3289,646.3535,1239.9529"/>
</g>
<g style="fill:rgb(36,34,35); fill-opacity:1.0; stroke-linejoin: miter">
<path d="M945.30286,1054.6599L945.3027,1054.6599L945.3025,1054.6598L945.30286,1054.6599"/>
</g>
</g>
<g id="layer3">
<g style="fill:rgb(199,47,46); fill-opacity:1.0; stroke-linejoin: miter">
<path d="M440.372,1239.1708L436.53333,1228.3727Q415.621,1168.8447,399.3466,1133.0162Q392.81448,1116.9896,353.66608,1044.2754Q343.87985,1024.7372,337.0281,1004.09894Q326.7347,967.1229,327.16336,950.07806Q326.0484,927.802,329.72736,906.18365Q352.1227,775.30786,542.1103,749.92706L543.36615,604.18164Q507.97028,597.04706,497.93808,611.31525Q487.78638,622.20984,487.92914,678.8883Q430.49094,690.43604,395.58304,713.0645Q361.86588,681.68097,347.49432,676.3746Q334.70108,670.91284,320.80606,684.36035Q316.50937,687.41943,277.17206,728.0207Q270.35175,734.82874,268.0267,741.1911Q265.36255,749.89294,273.0776,760.7454Q277.12534,768.23724,305.18015,796.5642Q267.70047,847.7362,260.30817,898.4036L200.87025,902.2661Q195.16048,901.8954,192.07674,918.2109Q185.12369,980.8992,194.16139,1006.99945Q198.25063,1015.04254,206.78261,1015.838L257.48932,1018.9411Q263.49954,1069.9935,296.8553,1122.4065Q265.83392,1150.6204,260.2984,1162.4897Q252.68985,1176.1866,261.50534,1187.3339L306.49402,1235.9326Q317.2874,1246.8396,323.33682,1248.4465Q328.57217,1250.4143,335.02927,1246.531Q354.93222,1229.0104,380.89172,1209.7253Q410.1883,1227.5469,440.372,1239.1708"/>
</g>
<g style="fill:rgb(36,34,35); fill-opacity:1.0; stroke-linejoin: miter">
<path d="M945.30286,1054.6599L945.3027,1054.6599L945.3025,1054.6598L945.30286,1054.6599"/>
</g>
<g style="fill:rgb(36,34,35); fill-opacity:1.0; stroke-linejoin: miter">
<path d="M374.21588,-69.8631L374.21585,-69.862366L374.21582,-69.86163L374.21588,-69.8631"/>
</g>
</g>
</svg>